#N canvas -3 -23 450 300 10;
#X msg -1139 75 1 \, 2 \, 3;
#X msg -1294 152 1;
#X obj -1294 187 print;
#X obj -1139 110 print;
#X text -1150 41 three-messages;
#X obj -1136 191 print;
#X msg -1136 156 1 2 3 \, bye bye \, hawaii;
#X obj -1300 110 print;
#X msg -1300 75 1 2 3;
#X text -1318 41 one-message;
#X connect 0 0 3 0;
#X connect 1 0 2 0;
#X connect 6 0 5 0;
#X connect 8 0 7 0;
