#N canvas -3 -23 450 300 10;
#X msg -479 -7151 stop;
#X msg -567 -7164 1;
#X msg -539 -7137 0;
#X msg -479 -7122 start;
#X obj -527 -7085 print;
#X text -485 -7174 Symbols;
#X text -572 -7186 Numbers;
#X msg -568 -7033 1 2 3;
#X msg -541 -6974 1 2 3 de oliveira 4;
#X msg -551 -7005 hi baby;
#X obj -551 -6939 print;
#X text -510 -7037 All numbers;
#X text -489 -7006 All Symbols;
#X text -393 -6974 Both;
#X text -604 -7226 -------- DATA MESSAGES: --------;
#X connect 0 0 4 0;
#X connect 1 0 4 0;
#X connect 2 0 4 0;
#X connect 3 0 4 0;
#X connect 7 0 10 0;
#X connect 8 0 10 0;
#X connect 9 0 10 0;
